<svg data-v-423bf9ae="" xmlns="http://www.w3.org/2000/svg" viewBox="0 0 556 90" class="iconLeftSlogan"><!----><!----><!----><g data-v-423bf9ae="" id="ed124973-01e5-4507-b4fe-2a88f64064e5" fill="white" transform="matrix(4.501125307082416,0,0,4.501125307082416,135.66385050203044,-16.564140715290087)"><path d="M9.04 8.52L5.41 8.52L5.41 9.61L7.71 9.61L7.70 11.74C7.38 12.00 6.89 12.52 5.51 12.52C3.46 12.52 1.94 10.99 1.94 8.94C1.94 6.89 3.46 5.36 5.51 5.36C6.90 5.36 7.64 6.07 8.26 6.49L8.26 5.14C7.62 4.57 6.84 4.16 5.51 4.16C2.75 4.16 0.68 6.32 0.68 8.94C0.68 11.57 2.75 13.73 5.51 13.73C7.11 13.73 8.38 12.99 9.04 12.28ZM16.34 6.69L15.18 6.69L15.18 10.73C15.18 11.92 14.36 12.56 13.44 12.56C12.52 12.56 11.70 11.92 11.70 10.73L11.70 6.69L10.54 6.69L10.54 10.73C10.54 12.54 11.80 13.66 13.44 13.66C15.08 13.66 16.34 12.54 16.34 10.73ZM24.42 9.87C24.42 8.00 23.38 6.55 21.27 6.55C19.35 6.55 17.98 8.20 17.98 10.14C17.98 12.09 19.47 13.73 21.55 13.73C22.61 13.73 23.32 13.26 23.60 12.99L23.60 11.85C23.15 12.18 22.53 12.63 21.55 12.63C20.23 12.63 19.33 11.69 19.17 10.54L24.42 10.54ZM19.20 9.58C19.39 8.50 20.15 7.64 21.27 7.64C22.23 7.64 23.17 8.26 23.31 9.58ZM29.49 6.55C28.71 6.55 27.90 7.15 27.38 8.05L27.38 6.69L26.26 6.69L26.26 13.52L27.38 13.52L27.38 9.39C27.89 8.48 28.40 7.72 29.33 7.72C29.68 7.72 30.04 7.86 30.32 8.08L30.32 6.74C30.08 6.62 29.80 6.55 29.49 6.55ZM37.94 13.52L37.94 3.68L36.82 3.68L36.82 7.60C36.23 6.95 35.36 6.55 34.58 6.55C32.70 6.55 31.28 7.96 31.28 10.21C31.28 12.29 32.70 13.73 34.47 13.73C35.51 13.73 36.34 13.08 36.82 12.36L36.82 13.52ZM34.78 7.67C35.62 7.67 36.23 8.07 36.80 8.78L36.82 10.09C36.83 11.55 35.89 12.63 34.64 12.63C33.32 12.63 32.44 11.54 32.44 10.21C32.44 8.89 33.32 7.67 34.78 7.67ZM43.08 6.55C41.21 6.55 39.79 7.96 39.79 10.21C39.79 12.29 41.21 13.73 42.97 13.73C44.01 13.73 44.84 13.08 45.32 12.36L45.32 13.52L46.44 13.52L46.44 6.69L45.32 6.69L45.32 7.60C44.73 6.95 43.86 6.55 43.08 6.55ZM43.29 7.64C44.12 7.64 44.73 8.07 45.31 8.78L45.32 10.09C45.34 11.55 44.39 12.63 43.15 12.63C41.82 12.63 40.95 11.54 40.95 10.21C40.95 8.89 41.82 7.64 43.29 7.64ZM55.62 9.57L59.05 13.52L60.76 13.52L56.51 8.59L60.35 4.36L58.63 4.36L54.44 9.17L54.44 4.36L53.21 4.36L53.21 13.52L54.44 13.52L54.44 10.86ZM64.87 6.55C63 6.55 61.58 7.96 61.58 10.21C61.58 12.29 63 13.73 64.76 13.73C65.80 13.73 66.64 13.08 67.12 12.36L67.12 13.52L68.24 13.52L68.24 6.69L67.12 6.69L67.12 7.60C66.53 6.95 65.65 6.55 64.87 6.55ZM65.08 7.64C65.91 7.64 66.53 8.07 67.10 8.78L67.12 10.09C67.13 11.55 66.19 12.63 64.94 12.63C63.62 12.63 62.74 11.54 62.74 10.21C62.74 8.89 63.62 7.64 65.08 7.64ZM73.91 6.55C72.98 6.55 72.11 7.23 71.68 7.77L71.68 6.69L70.56 6.69L70.56 13.52L71.68 13.52L71.68 8.98C72.23 8.27 72.99 7.64 73.72 7.64C74.80 7.64 75.30 8.29 75.30 9.46L75.32 13.52L76.44 13.52L76.44 9.35C76.44 7.46 75.30 6.55 73.91 6.55ZM81.38 6.55C79.50 6.55 78.08 7.96 78.08 10.21C78.08 12.29 79.50 13.73 81.27 13.73C82.30 13.73 83.14 13.08 83.62 12.36L83.62 13.79C83.62 15.15 82.47 15.91 81.14 15.91C79.95 15.91 79.02 15.29 78.64 15.07L78.64 16.27C79.12 16.57 79.87 17.01 81.14 17.01C83.08 17.01 84.74 15.83 84.74 13.38L84.74 6.69L83.62 6.69L83.62 7.60C83.03 6.95 82.15 6.55 81.38 6.55ZM81.58 7.66C82.41 7.66 83.03 8.07 83.60 8.78L83.62 10.09C83.63 11.55 82.69 12.62 81.44 12.62C80.12 12.62 79.24 11.54 79.24 10.21C79.24 8.89 80.12 7.66 81.58 7.66ZM89.88 6.55C88.01 6.55 86.58 7.96 86.58 10.21C86.58 12.29 88.01 13.73 89.77 13.73C90.81 13.73 91.64 13.08 92.12 12.36L92.12 13.52L93.24 13.52L93.24 6.69L92.12 6.69L92.12 7.60C91.53 6.95 90.66 6.55 89.88 6.55ZM90.08 7.64C90.92 7.64 91.53 8.07 92.11 8.78L92.12 10.09C92.13 11.55 91.19 12.63 89.95 12.63C88.62 12.63 87.75 11.54 87.75 10.21C87.75 8.89 88.62 7.64 90.08 7.64Z"></path></g><!----><g data-v-423bf9ae="" id="e6df5aad-9fa3-482b-b22b-8263637fe9f4" transform="matrix(1.3491433014146672,0,0,1.3491433014146672,-4.75887838466177,-14.942176145226107)" stroke="none" fill="white"><path d="M59.755 40.17c-.691.944-1.305 1.81-1.36 1.922-.056.113-.182.424-.279.424-.099 0-.18.958-.18 2.129 0 0 0 4.968 17.032 4.968S92 44.646 92 44.646c0-1.171-.08-2.129-.179-2.129-.1 0-.193-.099-.211-.22-.019-.121-.738-1.182-1.43-2.126L77.085 22.314a418.292 418.292 0 0 0-1.281-1.742l-.011-.013a.96.96 0 0 0-.157-.157c-.014-.011-.024-.024-.039-.034-.013-.01-.027-.015-.04-.024a.884.884 0 0 0-.099-.058.959.959 0 0 0-.189-.076.993.993 0 0 0-.2-.039c-.035-.003-.067-.006-.103-.006h-.005c-.008 0-.14-.4-.295-.889s-1.813-.888-2.985-.888H52.968a2.135 2.135 0 0 1-2.129-2.129v-.709c0-1.171-.215-2.608-.477-3.193-.262-.587-1.972-1.066-2.362-1.066s-1.188.214-1.773.476c-.586.263-1.065 2.611-1.065 3.782v.709a2.135 2.135 0 0 1-2.129 2.129H24.317c-1.171 0-2.365.173-2.653.384-.288.211-.62 1.393-.626 1.393h-.006a1.118 1.118 0 0 0-.202.019 1.271 1.271 0 0 0-.102.026c-.033.009-.065.021-.097.033a.923.923 0 0 0-.188.1c-.013.009-.028.014-.041.024-.014.01-.024.023-.038.034a.956.956 0 0 0-.157.157l-.011.013c-.013.014-.589.797-1.282 1.742L5.82 40.17c-.692.944-1.305 1.81-1.36 1.922-.056.113-.182.424-.28.424-.099.001-.18.959-.18 2.13 0 0 0 4.968 17.032 4.968s17.032-4.968 17.032-4.968c0-1.171-.08-2.129-.179-2.129-.098 0-.193-.099-.21-.22-.018-.121-.738-1.182-1.43-2.126L24.652 24.363c-.692-.944-.301-1.717.87-1.717h17.51c1.171 0 2.129.958 2.129 2.129v44.016c0 1.172-.936 2.333-2.081 2.58l-18.499 4.5c0 1.171.958 2.129 2.129 2.129h41.872a2.133 2.133 0 0 0 2.127-2.129l-17.789-4.5c-1.146-.247-2.081-1.408-2.081-2.58V24.775c0-1.171.958-2.129 2.129-2.129h17.51c1.172 0 1.563.773.87 1.717L59.755 40.17zm-25.689.63c.692.944.301 1.716-.87 1.716H8.868c-1.17 0-1.562-.772-.87-1.716l11.774-16.057c.693-.945 1.826-.945 2.519 0L34.066 40.8zm39.642-16.056c.693-.945 1.827-.945 2.519 0L88.001 40.8c.693.944.302 1.716-.87 1.716H62.804c-1.171 0-1.562-.772-.869-1.716l11.773-16.056z"></path></g><!----><g data-v-423bf9ae="" id="c3525159-7d1e-46c7-bb81-b7d2fd0d6737" fill="white" transform="matrix(1.3063901209921234,0,0,1.3063901209921234,137.54886358800113,52.5797056789803)"><path d="M4.34 14.78L4.34 14.78L4.34 14.78Q4.94 14.78 5.37 14.58L5.37 14.58L5.37 14.58Q5.80 14.38 6.07 14.04L6.07 14.04L6.07 14.04Q6.34 13.69 6.48 13.25L6.48 13.25L6.48 13.25Q6.61 12.81 6.61 12.32L6.61 12.32L6.61 12.15L7.78 12.15L7.78 12.32L7.78 12.32Q7.78 13.06 7.56 13.71L7.56 13.71L7.56 13.71Q7.34 14.36 6.90 14.85L6.90 14.85L6.90 14.85Q6.47 15.33 5.82 15.60L5.82 15.60L5.82 15.60Q5.18 15.88 4.34 15.88L4.34 15.88L4.34 15.88Q2.72 15.88 1.81 14.85L1.81 14.85L1.81 14.85Q0.90 13.83 0.90 11.87L0.90 11.87L0.90 9.69L0.90 9.69Q0.90 7.78 1.81 6.73L1.81 6.73L1.81 6.73Q2.72 5.68 4.34 5.68L4.34 5.68L4.34 5.68Q5.18 5.68 5.82 5.96L5.82 5.96L5.82 5.96Q6.47 6.23 6.90 6.71L6.90 6.71L6.90 6.71Q7.34 7.20 7.56 7.85L7.56 7.85L7.56 7.85Q7.78 8.50 7.78 9.24L7.78 9.24L7.78 9.41L6.61 9.41L6.61 9.24L6.61 9.24Q6.59 8.76 6.46 8.32L6.46 8.32L6.46 8.32Q6.33 7.87 6.05 7.53L6.05 7.53L6.05 7.53Q5.78 7.18 5.36 6.98L5.36 6.98L5.36 6.98Q4.94 6.78 4.34 6.78L4.34 6.78L4.34 6.78Q3.21 6.78 2.64 7.60L2.64 7.60L2.64 7.60Q2.07 8.43 2.07 9.77L2.07 9.77L2.07 11.79L2.07 11.79Q2.07 13.23 2.64 14.01L2.64 14.01L2.64 14.01Q3.21 14.78 4.34 14.78ZM21.83 14.59L21.83 14.50L21.66 14.50L21.66 14.50Q21.32 15.20 20.73 15.54L20.73 15.54L20.73 15.54Q20.13 15.88 19.47 15.88L19.47 15.88L19.47 15.88Q18.79 15.88 18.20 15.64L18.20 15.64L18.20 15.64Q17.61 15.41 17.17 14.96L17.17 14.96L17.17 14.96Q16.73 14.50 16.48 13.85L16.48 13.85L16.48 13.85Q16.23 13.19 16.23 12.32L16.23 12.32L16.23 12.10L16.23 12.10Q16.23 11.24 16.48 10.58L16.48 10.58L16.48 10.58Q16.73 9.93 17.17 9.47L17.17 9.47L17.17 9.47Q17.61 9.02 18.20 8.78L18.20 8.78L18.20 8.78Q18.79 8.54 19.45 8.54L19.45 8.54L19.45 8.54Q20.16 8.54 20.74 8.86L20.74 8.86L20.74 8.86Q21.32 9.17 21.66 9.83L21.66 9.83L21.83 9.83L21.83 8.74L22.92 8.74L22.92 14.25L22.92 14.25Q22.92 14.67 23.30 14.67L23.30 14.67L23.65 14.67L23.65 15.68L22.90 15.68L22.90 15.68Q22.43 15.68 22.13 15.37L22.13 15.37L22.13 15.37Q21.83 15.06 21.83 14.59L21.83 14.59ZM19.59 14.84L19.59 14.84L19.59 14.84Q20.08 14.84 20.49 14.66L20.49 14.66L20.49 14.66Q20.90 14.48 21.20 14.14L21.20 14.14L21.20 14.14Q21.49 13.80 21.66 13.33L21.66 13.33L21.66 13.33Q21.83 12.87 21.83 12.29L21.83 12.29L21.83 12.12L21.83 12.12Q21.83 11.56 21.66 11.09L21.66 11.09L21.66 11.09Q21.49 10.63 21.19 10.29L21.19 10.29L21.19 10.29Q20.89 9.95 20.48 9.77L20.48 9.77L20.48 9.77Q20.06 9.58 19.59 9.58L19.59 9.58L19.59 9.58Q19.10 9.58 18.69 9.76L18.69 9.76L18.69 9.76Q18.28 9.94 17.98 10.27L17.98 10.27L17.98 10.27Q17.68 10.60 17.51 11.07L17.51 11.07L17.51 11.07Q17.35 11.54 17.35 12.10L17.35 12.10L17.35 12.32L17.35 12.32Q17.35 13.51 17.97 14.17L17.97 14.17L17.97 14.17Q18.59 14.84 19.59 14.84ZM33.19 14.62L33.19 15.68L32.10 15.68L32.10 5.88L33.19 5.88L33.19 9.83L33.36 9.83L33.36 9.83Q33.73 9.20 34.37 8.87L34.37 8.87L34.37 8.87Q35.01 8.54 35.77 8.54L35.77 8.54L35.77 8.54Q36.41 8.54 36.99 8.78L36.99 8.78L36.99 8.78Q37.56 9.02 38.00 9.46L38.00 9.46L38.00 9.46Q38.44 9.91 38.70 10.57L38.70 10.57L38.70 10.57Q38.96 11.23 38.96 12.07L38.96 12.07L38.96 12.35L38.96 12.35Q38.96 13.20 38.71 13.86L38.71 13.86L38.71 13.86Q38.46 14.52 38.02 14.97L38.02 14.97L38.02 14.97Q37.58 15.41 36.99 15.64L36.99 15.64L36.99 15.64Q36.40 15.88 35.74 15.88L35.74 15.88L35.74 15.88Q35.41 15.88 35.06 15.80L35.06 15.80L35.06 15.80Q34.71 15.72 34.39 15.56L34.39 15.56L34.39 15.56Q34.08 15.40 33.81 15.17L33.81 15.17L33.81 15.17Q33.54 14.94 33.36 14.62L33.36 14.62L33.19 14.62ZM35.52 14.84L35.52 14.84L35.52 14.84Q36.02 14.84 36.44 14.66L36.44 14.66L36.44 14.66Q36.86 14.49 37.18 14.17L37.18 14.17L37.18 14.17Q37.49 13.85 37.67 13.38L37.67 13.38L37.67 13.38Q37.84 12.92 37.84 12.35L37.84 12.35L37.84 12.07L37.84 12.07Q37.84 11.51 37.67 11.05L37.67 11.05L37.67 11.05Q37.49 10.60 37.18 10.27L37.18 10.27L37.18 10.27Q36.86 9.94 36.44 9.76L36.44 9.76L36.44 9.76Q36.01 9.58 35.52 9.58L35.52 9.58L35.52 9.58Q35.03 9.58 34.61 9.77L34.61 9.77L34.61 9.77Q34.19 9.95 33.87 10.29L33.87 10.29L33.87 10.29Q33.56 10.63 33.38 11.09L33.38 11.09L33.38 11.09Q33.19 11.56 33.19 12.12L33.19 12.12L33.19 12.29L33.19 12.29Q33.19 12.87 33.38 13.33L33.38 13.33L33.38 13.33Q33.56 13.80 33.87 14.14L33.87 14.14L33.87 14.14Q34.19 14.48 34.61 14.66L34.61 14.66L34.61 14.66Q35.03 14.84 35.52 14.84ZM50.08 6.66L50.08 6.66L50.08 6.66Q50.08 6.26 50.37 5.97L50.37 5.97L50.37 5.97Q50.65 5.68 51.06 5.68L51.06 5.68L51.06 5.68Q51.46 5.68 51.75 5.97L51.75 5.97L51.75 5.97Q52.04 6.26 52.04 6.66L52.04 6.66L52.04 6.66Q52.04 7.07 51.75 7.36L51.75 7.36L51.75 7.36Q51.46 7.64 51.06 7.64L51.06 7.64L51.06 7.64Q50.65 7.64 50.37 7.36L50.37 7.36L50.37 7.36Q50.08 7.07 50.08 6.66ZM48.09 15.68L48.09 14.67L50.53 14.67L50.53 9.74L48.34 9.74L48.34 8.74L51.62 8.74L51.62 14.67L53.89 14.67L53.89 15.68L48.09 15.68ZM64.58 12.07L64.58 15.68L63.49 15.68L63.49 8.74L64.58 8.74L64.58 9.91L64.75 9.91L64.75 9.91Q65.39 8.54 66.99 8.54L66.99 8.54L66.99 8.54Q68.19 8.54 68.91 9.29L68.91 9.29L68.91 9.29Q69.62 10.04 69.62 11.54L69.62 11.54L69.62 15.68L68.53 15.68L68.53 11.76L68.53 11.76Q68.53 10.67 68.04 10.12L68.04 10.12L68.04 10.12Q67.55 9.58 66.71 9.58L66.71 9.58L66.71 9.58Q65.72 9.58 65.15 10.25L65.15 10.25L65.15 10.25Q64.58 10.93 64.58 12.07L64.58 12.07ZM85.46 12.54L79.86 12.54L79.86 12.54Q79.90 13.58 80.50 14.21L80.50 14.21L80.50 14.21Q81.10 14.84 82.18 14.84L82.18 14.84L82.18 14.84Q82.67 14.84 83.03 14.73L83.03 14.73L83.03 14.73Q83.40 14.62 83.66 14.42L83.66 14.42L83.66 14.42Q83.92 14.22 84.08 13.96L84.08 13.96L84.08 13.96Q84.24 13.71 84.34 13.41L84.34 13.41L85.37 13.69L85.37 13.69Q85.08 14.66 84.29 15.27L84.29 15.27L84.29 15.27Q83.50 15.88 82.15 15.88L82.15 15.88L82.15 15.88Q81.41 15.88 80.79 15.62L80.79 15.62L80.79 15.62Q80.16 15.36 79.72 14.88L79.72 14.88L79.72 14.88Q79.27 14.41 79.02 13.75L79.02 13.75L79.02 13.75Q78.76 13.09 78.76 12.29L78.76 12.29L78.76 11.96L78.76 11.96Q78.76 11.23 79.02 10.60L79.02 10.60L79.02 10.60Q79.28 9.97 79.74 9.51L79.74 9.51L79.74 9.51Q80.21 9.06 80.83 8.80L80.83 8.80L80.83 8.80Q81.45 8.54 82.18 8.54L82.18 8.54L82.18 8.54Q83.03 8.54 83.66 8.86L83.66 8.86L83.66 8.86Q84.28 9.17 84.68 9.63L84.68 9.63L84.68 9.63Q85.08 10.09 85.27 10.64L85.27 10.64L85.27 10.64Q85.46 11.19 85.46 11.65L85.46 11.65L85.46 12.54ZM82.18 9.58L82.18 9.58L82.18 9.58Q81.72 9.58 81.32 9.72L81.32 9.72L81.32 9.72Q80.92 9.87 80.62 10.14L80.62 10.14L80.62 10.14Q80.32 10.40 80.13 10.76L80.13 10.76L80.13 10.76Q79.94 11.12 79.88 11.54L79.88 11.54L84.36 11.54L84.36 11.54Q84.34 11.09 84.15 10.72L84.15 10.72L84.15 10.72Q83.96 10.36 83.66 10.11L83.66 10.11L83.66 10.11Q83.36 9.86 82.97 9.72L82.97 9.72L82.97 9.72Q82.59 9.58 82.18 9.58ZM94.39 9.74L94.39 8.74L96.57 8.74L96.57 5.88L97.66 5.88L97.66 8.74L100.35 8.74L100.35 9.74L97.66 9.74L97.66 14.25L97.66 14.25Q97.66 14.67 98.04 14.67L98.04 14.67L100.02 14.67L100.02 15.68L97.65 15.68L97.65 15.68Q97.17 15.68 96.87 15.37L96.87 15.37L96.87 15.37Q96.57 15.06 96.57 14.59L96.57 14.59L96.57 9.74L94.39 9.74ZM131.14 15.68L131.14 14.62L130.97 14.62L130.97 14.62Q130.80 14.94 130.54 15.18L130.54 15.18L130.54 15.18Q130.28 15.41 129.98 15.57L129.98 15.57L129.98 15.57Q129.68 15.72 129.35 15.80L129.35 15.80L129.35 15.80Q129.01 15.88 128.70 15.88L128.70 15.88L128.70 15.88Q128.00 15.88 127.40 15.64L127.40 15.64L127.40 15.64Q126.80 15.40 126.34 14.95L126.34 14.95L126.34 14.95Q125.89 14.50 125.63 13.84L125.63 13.84L125.63 13.84Q125.37 13.17 125.37 12.32L125.37 12.32L125.37 12.10L125.37 12.10Q125.37 11.26 125.64 10.59L125.64 10.59L125.64 10.59Q125.90 9.93 126.35 9.47L126.35 9.47L126.35 9.47Q126.80 9.02 127.40 8.78L127.40 8.78L127.40 8.78Q128.00 8.54 128.67 8.54L128.67 8.54L128.67 8.54Q129.39 8.54 130.01 8.86L130.01 8.86L130.01 8.86Q130.63 9.17 130.97 9.83L130.97 9.83L131.14 9.83L131.14 5.88L132.23 5.88L132.23 15.68L131.14 15.68ZM128.81 14.84L128.81 14.84L128.81 14.84Q129.30 14.84 129.72 14.66L129.72 14.66L129.72 14.66Q130.14 14.48 130.46 14.14L130.46 14.14L130.46 14.14Q130.77 13.80 130.96 13.33L130.96 13.33L130.96 13.33Q131.14 12.87 131.14 12.29L131.14 12.29L131.14 12.12L131.14 12.12Q131.14 11.56 130.96 11.09L130.96 11.09L130.96 11.09Q130.77 10.63 130.46 10.29L130.46 10.29L130.46 10.29Q130.14 9.95 129.72 9.77L129.72 9.77L129.72 9.77Q129.29 9.58 128.81 9.58L128.81 9.58L128.81 9.58Q128.32 9.58 127.90 9.76L127.90 9.76L127.90 9.76Q127.47 9.94 127.16 10.28L127.16 10.28L127.16 10.28Q126.84 10.61 126.66 11.07L126.66 11.07L126.66 11.07Q126.49 11.54 126.49 12.10L126.49 12.10L126.49 12.32L126.49 12.32Q126.49 12.91 126.66 13.37L126.66 13.37L126.66 13.37Q126.84 13.83 127.16 14.16L127.16 14.16L127.16 14.16Q127.47 14.49 127.89 14.66L127.89 14.66L127.89 14.66Q128.31 14.84 128.81 14.84ZM143.42 6.66L143.42 6.66L143.42 6.66Q143.42 6.26 143.70 5.97L143.70 5.97L143.70 5.97Q143.99 5.68 144.40 5.68L144.40 5.68L144.40 5.68Q144.80 5.68 145.09 5.97L145.09 5.97L145.09 5.97Q145.38 6.26 145.38 6.66L145.38 6.66L145.38 6.66Q145.38 6.97 145.21 7.22L145.21 7.22L145.21 7.22Q145.04 7.46 144.77 7.57L144.77 7.57L144.77 9.13L144.02 9.13L144.02 7.57L144.02 7.57Q143.75 7.46 143.58 7.22L143.58 7.22L143.58 7.22Q143.42 6.97 143.42 6.66ZM178.35 15.68L177.63 13.24L173.43 13.24L172.72 15.68L171.46 15.68L174.43 5.88L176.64 5.88L179.61 15.68L178.35 15.68ZM175.62 6.38L175.45 6.38L173.75 12.15L177.31 12.15L175.62 6.38ZM194.59 8.74L192.16 15.68L190.01 15.68L187.59 8.74L188.87 8.74L191.00 15.18L191.17 15.18L193.30 8.74L194.59 8.74ZM210.15 12.12L210.15 12.29L210.15 12.29Q210.15 13.16 209.87 13.82L209.87 13.82L209.87 13.82Q209.58 14.49 209.10 14.95L209.10 14.95L209.10 14.95Q208.63 15.40 207.99 15.64L207.99 15.64L207.99 15.64Q207.35 15.88 206.67 15.88L206.67 15.88L206.67 15.88Q205.97 15.88 205.34 15.64L205.34 15.64L205.34 15.64Q204.71 15.40 204.23 14.95L204.23 14.95L204.23 14.95Q203.76 14.49 203.47 13.82L203.47 13.82L203.47 13.82Q203.18 13.16 203.18 12.29L203.18 12.29L203.18 12.12L203.18 12.12Q203.18 11.27 203.47 10.61L203.47 10.61L203.47 10.61Q203.76 9.94 204.24 9.48L204.24 9.48L204.24 9.48Q204.72 9.02 205.35 8.78L205.35 8.78L205.35 8.78Q205.98 8.54 206.67 8.54L206.67 8.54L206.67 8.54Q207.35 8.54 207.98 8.78L207.98 8.78L207.98 8.78Q208.61 9.02 209.10 9.48L209.10 9.48L209.10 9.48Q209.58 9.94 209.87 10.61L209.87 10.61L209.87 10.61Q210.15 11.27 210.15 12.12L210.15 12.12ZM206.67 14.84L206.67 14.84L206.67 14.84Q207.17 14.84 207.60 14.66L207.60 14.66L207.60 14.66Q208.03 14.49 208.35 14.15L208.35 14.15L208.35 14.15Q208.67 13.82 208.85 13.35L208.85 13.35L208.85 13.35Q209.03 12.88 209.03 12.29L209.03 12.29L209.03 12.12L209.03 12.12Q209.03 11.56 208.85 11.09L208.85 11.09L208.85 11.09Q208.67 10.63 208.35 10.29L208.35 10.29L208.35 10.29Q208.03 9.95 207.59 9.77L207.59 9.77L207.59 9.77Q207.16 9.58 206.67 9.58L206.67 9.58L206.67 9.58Q206.18 9.58 205.74 9.77L205.74 9.77L205.74 9.77Q205.31 9.95 204.99 10.29L204.99 10.29L204.99 10.29Q204.67 10.63 204.48 11.09L204.48 11.09L204.48 11.09Q204.30 11.56 204.30 12.12L204.30 12.12L204.30 12.29L204.30 12.29Q204.30 12.88 204.48 13.35L204.48 13.35L204.48 13.35Q204.67 13.82 204.99 14.15L204.99 14.15L204.99 14.15Q205.31 14.49 205.74 14.66L205.74 14.66L205.74 14.66Q206.16 14.84 206.67 14.84ZM224.57 12.96L225.67 13.22L225.67 13.22Q225.55 13.79 225.28 14.28L225.28 14.28L225.28 14.28Q225.01 14.77 224.59 15.13L224.59 15.13L224.59 15.13Q224.17 15.48 223.61 15.68L223.61 15.68L223.61 15.68Q223.05 15.88 222.36 15.88L222.36 15.88L222.36 15.88Q221.63 15.88 220.98 15.64L220.98 15.64L220.98 15.64Q220.33 15.40 219.84 14.95L219.84 14.95L219.84 14.95Q219.35 14.49 219.07 13.83L219.07 13.83L219.07 13.83Q218.78 13.17 218.78 12.32L218.78 12.32L218.78 12.15L218.78 12.15Q218.78 11.31 219.07 10.64L219.07 10.64L219.07 10.64Q219.35 9.97 219.84 9.51L219.84 9.51L219.84 9.51Q220.33 9.04 220.98 8.79L220.98 8.79L220.98 8.79Q221.63 8.54 222.36 8.54L222.36 8.54L222.36 8.54Q223.02 8.54 223.58 8.74L223.58 8.74L223.58 8.74Q224.14 8.93 224.57 9.29L224.57 9.29L224.57 9.29Q224.99 9.65 225.27 10.14L225.27 10.14L225.27 10.14Q225.54 10.63 225.64 11.20L225.64 11.20L224.55 11.45L224.55 11.45Q224.50 11.09 224.34 10.74L224.34 10.74L224.34 10.74Q224.18 10.40 223.91 10.14L223.91 10.14L223.91 10.14Q223.64 9.88 223.24 9.73L223.24 9.73L223.24 9.73Q222.85 9.58 222.33 9.58L222.33 9.58L222.33 9.58Q221.83 9.58 221.39 9.77L221.39 9.77L221.39 9.77Q220.95 9.95 220.61 10.30L220.61 10.30L220.61 10.30Q220.28 10.64 220.09 11.12L220.09 11.12L220.09 11.12Q219.90 11.59 219.90 12.15L219.90 12.15L219.90 12.32L219.90 12.32Q219.90 12.91 220.09 13.38L220.09 13.38L220.09 13.38Q220.28 13.85 220.61 14.17L220.61 14.17L220.61 14.17Q220.95 14.49 221.40 14.66L221.40 14.66L221.40 14.66Q221.84 14.84 222.36 14.84L222.36 14.84L222.36 14.84Q222.88 14.84 223.27 14.68L223.27 14.68L223.27 14.68Q223.65 14.52 223.92 14.26L223.92 14.26L223.92 14.26Q224.20 14 224.36 13.66L224.36 13.66L224.36 13.66Q224.52 13.33 224.57 12.96L224.57 12.96ZM239.78 14.59L239.78 14.50L239.61 14.50L239.61 14.50Q239.27 15.20 238.68 15.54L238.68 15.54L238.68 15.54Q238.08 15.88 237.43 15.88L237.43 15.88L237.43 15.88Q236.74 15.88 236.15 15.64L236.15 15.64L236.15 15.64Q235.56 15.41 235.12 14.96L235.12 14.96L235.12 14.96Q234.68 14.50 234.43 13.85L234.43 13.85L234.43 13.85Q234.18 13.19 234.18 12.32L234.18 12.32L234.18 12.10L234.18 12.10Q234.18 11.24 234.43 10.58L234.43 10.58L234.43 10.58Q234.68 9.93 235.12 9.47L235.12 9.47L235.12 9.47Q235.56 9.02 236.15 8.78L236.15 8.78L236.15 8.78Q236.74 8.54 237.40 8.54L237.40 8.54L237.40 8.54Q238.11 8.54 238.69 8.86L238.69 8.86L238.69 8.86Q239.27 9.17 239.61 9.83L239.61 9.83L239.78 9.83L239.78 8.74L240.87 8.74L240.87 14.25L240.87 14.25Q240.87 14.67 241.25 14.67L241.25 14.67L241.60 14.67L241.60 15.68L240.86 15.68L240.86 15.68Q240.38 15.68 240.08 15.37L240.08 15.37L240.08 15.37Q239.78 15.06 239.78 14.59L239.78 14.59ZM237.54 14.84L237.54 14.84L237.54 14.84Q238.03 14.84 238.44 14.66L238.44 14.66L238.44 14.66Q238.85 14.48 239.15 14.14L239.15 14.14L239.15 14.14Q239.44 13.80 239.61 13.33L239.61 13.33L239.61 13.33Q239.78 12.87 239.78 12.29L239.78 12.29L239.78 12.12L239.78 12.12Q239.78 11.56 239.61 11.09L239.61 11.09L239.61 11.09Q239.44 10.63 239.14 10.29L239.14 10.29L239.14 10.29Q238.84 9.95 238.43 9.77L238.43 9.77L238.43 9.77Q238.01 9.58 237.54 9.58L237.54 9.58L237.54 9.58Q237.05 9.58 236.64 9.76L236.64 9.76L236.64 9.76Q236.24 9.94 235.94 10.27L235.94 10.27L235.94 10.27Q235.63 10.60 235.47 11.07L235.47 11.07L235.47 11.07Q235.30 11.54 235.30 12.10L235.30 12.10L235.30 12.32L235.30 12.32Q235.30 13.51 235.92 14.17L235.92 14.17L235.92 14.17Q236.54 14.84 237.54 14.84ZM250.07 9.74L250.07 8.74L252.25 8.74L252.25 5.88L253.34 5.88L253.34 8.74L256.03 8.74L256.03 9.74L253.34 9.74L253.34 14.25L253.34 14.25Q253.34 14.67 253.72 14.67L253.72 14.67L255.70 14.67L255.70 15.68L253.33 15.68L253.33 15.68Q252.85 15.68 252.55 15.37L252.55 15.37L252.55 15.37Q252.25 15.06 252.25 14.59L252.25 14.59L252.25 9.74L250.07 9.74Z"></path></g></svg>